<svg width="118" height="224" viewBox="0 0 118 224" fill="none" xmlns="http://www.w3.org/2000/svg">
<path d="M37.1615 120.5C37.1615 120.5 31.1702 124.143 41.3308 125.185C53.6013 126.747 60.0887 126.486 73.6343 123.885C73.6343 123.885 77.2807 126.23 82.2316 128.05C51.7474 141.062 13.1913 127.269 37.1615 120.5ZM33.2536 103.584C33.2536 103.584 26.7395 108.53 36.9 109.569C50.1842 110.87 60.6088 111.131 78.5851 107.491C78.5851 107.491 80.9326 110.094 84.8378 111.395C48.1062 122.326 6.94129 112.431 33.2536 103.584ZM105.159 133.254C105.159 133.254 109.587 136.897 100.208 139.762C82.7518 144.966 27.0009 146.53 11.3694 139.762C5.90097 137.417 16.3202 134.032 19.7053 133.515C23.093 132.734 24.9149 132.734 24.9149 132.734C18.9237 128.569 -14.9456 141.323 7.72021 144.992C69.9851 155.145 121.311 140.569 105.156 133.281L105.159 133.254ZM40.0264 85.8849C40.0264 85.8849 11.6281 92.6534 29.8632 94.9931C37.679 96.0324 53.0491 95.7739 67.379 94.732C79.1026 93.6927 90.853 91.6088 90.853 91.6088C90.853 91.6088 86.6837 93.4315 83.8188 95.2516C54.8764 102.806 -0.615747 99.422 15.2772 91.6142C28.8282 85.1068 40.0264 85.8849 40.0264 85.8849ZM90.8263 114.254C120.009 99.1582 106.458 84.5845 97.079 86.4072C94.7316 86.9268 93.6912 87.4464 93.6912 87.4464C93.6912 87.4464 94.4728 85.8849 96.2974 85.3679C114.794 78.8605 129.385 104.887 90.3062 115.038C90.3062 115.038 90.5676 114.774 90.8263 114.254ZM42.8913 155.372C71.0281 157.195 114.015 154.333 115.058 141.057C115.058 141.057 112.977 146.261 91.872 150.165C67.9045 154.588 38.2018 154.069 20.7483 151.204C20.7483 151.204 24.3948 154.327 42.8939 155.369L42.8913 155.372Z" fill="#4E7896"/>
<path d="M73.0874 0C73.0874 0 89.2392 16.3964 57.7173 41.1176C32.4453 61.1568 51.9821 72.6101 57.7173 85.6196C42.8672 72.3489 32.1892 60.6345 39.4795 49.7036C50.1869 33.5763 79.6228 25.7685 73.0874 0ZM64.7515 74.6939C72.3058 83.2825 62.6708 91.0903 62.6708 91.0903C62.6708 91.0903 81.9489 81.204 73.0928 68.9673C65.0155 57.2556 58.7629 51.5289 92.6322 32.0067C92.6322 32.0067 39.2234 45.2774 64.7568 74.6886L64.7515 74.6939Z" fill="#F58219"/>
<path d="M51.307 211.09V185.588C51.307 179.081 47.6605 174.657 38.5403 174.657C33.3307 174.657 28.8999 175.958 24.9894 177.519L26.2911 182.204C29.156 181.165 32.8052 180.126 36.7131 180.126C41.664 180.126 44.0087 182.204 44.0087 186.372V189.756H41.4025C28.8973 189.756 23.1648 194.441 23.1648 202.014C23.1648 208.26 27.0727 211.9 34.1069 211.9C38.535 211.9 41.9227 209.822 45.049 207.216L45.5692 211.12H51.3043L51.307 211.09ZM44.0114 202.763C41.4052 205.108 38.543 206.406 35.9342 206.406C32.5464 206.406 30.4658 204.327 30.4658 200.676C30.4658 197.026 32.5464 194.43 40.8877 194.43H44.0114V202.758V202.763ZM75.7947 211.09H66.6772L55.7351 175.436H63.5508L70.3263 197.297L71.8895 203.805C75.2772 194.435 77.8807 184.805 78.9237 175.436H86.7395C84.6588 187.147 81.0017 199.898 75.7947 211.09ZM118 211.09V185.588C118 179.081 114.353 174.657 105.233 174.657C100.024 174.657 95.5929 175.958 91.6824 177.519L92.7227 182.204C95.849 181.165 99.4981 180.126 103.403 180.126C108.354 180.126 110.699 182.204 110.699 186.372V189.756H108.093C95.5876 189.756 89.8551 194.441 89.8551 202.014C89.8551 208.26 93.5016 211.9 100.536 211.9C105.225 211.9 108.613 209.822 111.739 207.216L112.259 211.12H117.995L118 211.09ZM110.704 202.763C108.098 205.108 105.236 206.406 102.627 206.406C99.2394 206.406 97.1587 204.327 97.1587 200.676C97.1587 197.026 99.2394 194.43 107.581 194.43H110.707V202.758L110.704 202.763ZM15.0956 217.073C13.0149 220.196 9.88596 222.536 5.97806 223.841L2.59033 219.676C5.19649 218.115 7.79997 215.772 8.84297 213.691C9.88329 211.869 10.1447 209.268 10.1447 203.28V162.685H17.9605V202.763C17.9605 210.832 17.1789 213.955 15.0956 217.078V217.073Z" fill="#4E7896"/>
</svg>
