<svg width="140" height="141" viewBox="0 0 140 141" fill="none" xmlns="http://www.w3.org/2000/svg">
<g opacity="0.6">
<path opacity="0.3" d="M119 0H21C9.40202 0 0 9.40655 0 21.0101V119.057C0 130.661 9.40202 140.067 21 140.067H119C130.598 140.067 140 130.661 140 119.057V21.0101C140 9.40655 130.598 0 119 0Z" fill="#F7DF1E"/>
<path d="M88.5938 101.22C91.3281 105.871 95.1563 109.154 101.445 109.154C106.914 109.154 110.469 106.418 110.469 102.588C110.469 98.2111 106.914 96.5697 100.898 93.834L97.6172 92.4662C88.0469 88.3626 81.7578 83.4384 81.7578 72.7692C81.7578 62.9207 89.1406 55.2607 100.898 55.2607C109.375 55.2607 115.391 58.27 119.492 65.9299L109.375 72.4956C107.188 68.3921 104.727 66.7506 100.898 66.7506C97.0703 66.7506 94.6094 69.2128 94.6094 72.4956C94.6094 76.3256 97.0703 77.967 102.813 80.4291L106.094 81.797C117.305 86.7212 123.594 91.3719 123.594 102.588C123.594 114.352 114.297 120.917 101.719 120.917C89.4141 120.917 81.4844 115.172 77.6563 107.512L88.5938 101.22ZM42.1094 102.315C44.2969 105.871 45.9375 109.154 50.5859 109.154C54.9609 109.154 57.6953 107.512 57.6953 100.947V55.5343H70.8203V100.4C70.8203 114.078 62.8906 120.097 51.1328 120.097C40.4688 120.097 34.4531 114.625 31.4453 108.06L42.1094 102.315Z" fill="black"/>
</g>
</svg>
