<svg
	width="32"
	height="32"
	viewBox="0 0 32 32"
	fill="currentColor"
	xmlns="http://www.w3.org/2000/svg"
>
	<g clip-path="url(#clip0_220_1011)">
		<mask
			id="mask0_220_1011"
			style="mask-type: luminance"
			maskUnits="userSpaceOnUse"
			x="0"
			y="0"
			width="32"
			height="32"
		>
			<path
				d="M32 0H0V32H32V0Z"
				fill="white"
			/>
		</mask>
		<g mask="url(#mask0_220_1011)">
			<path
				fill-rule="evenodd"
				clip-rule="evenodd"
				d="M13.9233 3.25905C13.4336 4.85336 12.4276 8.34092 11.8655 11.7768C13.3244 12.0123 14.7495 12.1628 16 12.1628C17.2505 12.1628 18.6756 12.0123 20.1345 11.7768C19.5724 8.34092 18.5664 4.85336 18.0767 3.25905C17.4012 3.14987 16.7076 3.09303 16 3.09303C15.2924 3.09303 14.5988 3.14987 13.9233 3.25905ZM20.4449 3.87857C20.9827 5.74 21.7277 8.57104 22.1931 11.3965C24.2017 10.9827 26.0969 10.4777 27.4733 10.0815C25.9981 7.22803 23.4896 4.99549 20.4449 3.87857ZM28.2839 12.0258C26.8296 12.4491 24.7231 13.0177 22.4792 13.4743C22.5727 14.3419 22.6279 15.1944 22.6279 16C22.6279 17.1755 22.5103 18.4548 22.326 19.7411C25.012 19.1811 27.4757 18.4653 28.7409 18.0767C28.8501 17.4012 28.9069 16.7076 28.9069 16C28.9069 14.612 28.6883 13.2767 28.2839 12.0258ZM28.1215 20.4449C26.5555 20.8972 24.3053 21.4959 21.9512 21.9512C21.4959 24.3053 20.8972 26.5555 20.4449 28.1215C23.9971 26.8184 26.8184 23.9971 28.1215 20.4449ZM18.0768 28.7409C18.4653 27.4757 19.1811 25.012 19.7411 22.326C18.4548 22.5103 17.1755 22.6279 16 22.6279C14.8245 22.6279 13.5452 22.5103 12.259 22.326C12.8189 25.012 13.5347 27.4757 13.9233 28.7409C14.5988 28.8501 15.2924 28.9069 16 28.9069C16.7076 28.9069 17.4012 28.8501 18.0768 28.7409ZM11.5551 28.1215C11.1028 26.5555 10.5041 24.3053 10.0488 21.9512C7.69465 21.4959 5.44447 20.8972 3.87855 20.4449C5.18163 23.9971 8.00288 26.8184 11.5551 28.1215ZM3.25905 18.0767C4.52421 18.4653 6.98801 19.1811 9.67397 19.7411C9.48973 18.4548 9.37209 17.1755 9.37209 16C9.37209 15.1944 9.42731 14.3419 9.52075 13.4743C7.27692 13.0177 5.17039 12.4491 3.71616 12.0258C3.31177 13.2767 3.09303 14.612 3.09303 16C3.09303 16.7076 3.14987 17.4012 3.25905 18.0767ZM4.52672 10.0815C5.90308 10.4777 7.7982 10.9827 9.80696 11.3965C10.2722 8.57103 11.0174 5.74 11.555 3.87857C8.51043 4.99549 6.00185 7.22803 4.52672 10.0815ZM11.5857 13.8517C11.5085 14.6059 11.4651 15.3291 11.4651 16C11.4651 17.2532 11.6163 18.6827 11.8531 20.1469C13.3173 20.3837 14.7468 20.5349 16 20.5349C17.2532 20.5349 18.6827 20.3837 20.1469 20.1469C20.3837 18.6827 20.5349 17.2532 20.5349 16C20.5349 15.3291 20.4915 14.6059 20.4144 13.8517C18.9035 14.0937 17.3797 14.2559 16 14.2559C14.6203 14.2559 13.0965 14.0937 11.5857 13.8517ZM12.897 1.32156C13.8991 1.1107 14.9372 1 16 1C17.0628 1 18.1009 1.1107 19.1031 1.32157C24.0144 2.35503 28.0375 5.78796 29.8933 10.3357C30.6072 12.0847 31 13.9977 31 16C31 17.0628 30.8893 18.1009 30.6784 19.1031C29.4591 24.8981 24.8981 29.4591 19.1031 30.6784C18.1009 30.8893 17.0628 31 16 31C14.9372 31 13.8991 30.8893 12.897 30.6784C7.10192 29.4591 2.54096 24.8981 1.32156 19.1031C1.1107 18.1009 1 17.0628 1 16C1 13.9963 1.39345 12.0818 2.10831 10.3315C3.96492 5.78591 7.98701 2.35472 12.897 1.32156Z"
				fill="currentColor"
			/>
		</g>
	</g>
	<defs>
		<clipPath id="clip0_220_1011">
			<rect
				width="32"
				height="32"
				fill="white"
			/>
		</clipPath>
	</defs>
</svg>
