<svg
	viewBox="0 0 120 170"
	fill="none"
	xmlns="http://www.w3.org/2000/svg"
>
	<path
		d="M59.9266 169.462L10.9207 155.851L0 33.3018H120L109.068 155.832L59.9266 169.462Z"
		fill="#264DE4"
	/>
	<path
		d="M99.708 148.031L109.05 43.3232H59.9995V159.045L99.708 148.031Z"
		fill="#2965F1"
	/>
	<path
		d="M25.0356 88.7783L26.3821 103.808H60.0001V88.7783H25.0356Z"
		fill="#EBEBEB"
	/>
	<path
		d="M22.3301 58.3545L23.6957 73.3848H60V58.3545H22.3301Z"
		fill="#EBEBEB"
	/>
	<path
		d="M60.0005 127.811L59.9347 127.828L43.2037 123.309L42.1342 111.321H27.0537L29.1584 134.921L59.9314 143.468L60.0005 143.449V127.811Z"
		fill="#EBEBEB"
	/>
	<path
		d="M28.2412 0H46.4364V7.61263H35.8501V15.2253H46.4364V22.8379H28.2412V0Z"
		fill="black"
	/>
	<path
		d="M50.0752 0H68.2703V6.61968H57.6841V7.94362H68.2703V23.1689H50.0752V16.2182H60.6615V14.8943H50.0752V0Z"
		fill="black"
	/>
	<path
		d="M71.9102 0H90.1053V6.61968H79.519V7.94362H90.1053V23.1689H71.9102V16.2182H82.4964V14.8943H71.9102V0Z"
		fill="black"
	/>
	<path
		d="M94.8684 88.7759L97.5804 58.3545H59.9482V73.3848H81.1168L79.7499 88.7759H59.9482V103.806H78.4471L76.7033 123.299L59.9482 127.823V143.46L90.7457 134.921L90.9716 132.381L94.5018 92.8119L94.8684 88.7759Z"
		fill="white"
	/>
</svg>
