<svg
	viewBox="0 0 140 198"
	fill="none"
	xmlns="http://www.w3.org/2000/svg"
>
	<path
		d="M140 38.8525L127.246 181.803L69.9143 197.705L12.7409 181.825L0 38.8525H140Z"
		fill="#E44D26"
	/>
	<path
		d="M69.9995 185.551L116.326 172.702L127.225 50.5439H69.9995V185.551Z"
		fill="#F16529"
	/>
	<path
		d="M45.2061 85.6134H70V68.0781H26.0518L26.4713 72.7825L30.779 121.104H70V103.569H46.8078L45.2061 85.6134Z"
		fill="#EBEBEB"
	/>
	<path
		d="M49.1564 129.874H31.5625L34.018 157.407L69.9198 167.378L70.0004 167.356V149.112L69.9236 149.132L50.4042 143.859L49.1564 129.874Z"
		fill="#EBEBEB"
	/>
	<path
		d="M13.0254 0H21.9321V8.80411H30.0797V0H38.9868V26.661H30.0801V17.7333H21.9325V26.661H13.0258L13.0254 0Z"
		fill="black"
	/>
	<path
		d="M50.6995 8.84118H42.8584V0H67.4516V8.84118H59.607V26.661H50.6999L50.6995 8.84118Z"
		fill="black"
	/>
	<path
		d="M71.355 0H80.6423L86.3552 9.36788L92.0624 0H101.353V26.661H92.4831V13.4463L86.3552 22.9258H86.202L80.0699 13.4463V26.661H71.355V0Z"
		fill="black"
	/>
	<path
		d="M105.786 0H114.696V17.8484H127.221V26.661H105.786V0Z"
		fill="black"
	/>
	<path
		d="M69.9399 121.107H91.5219L89.4875 143.849L69.9399 149.127V167.37L105.87 157.407L106.134 154.445L110.252 108.281L110.68 103.572H69.9399V121.107Z"
		fill="white"
	/>
	<path
		d="M69.9399 85.5705V85.6134H112.275L112.626 81.672L113.425 72.7825L113.844 68.0781H69.9399V85.5705Z"
		fill="white"
	/>
</svg>
