<svg
	viewBox="0 0 200 26"
	fill="none"
	xmlns="http://www.w3.org/2000/svg"
>
	<path
		fill-rule="evenodd"
		clip-rule="evenodd"
		d="M144.135 0.304354H140.041V25.3461H159.277L161.883 21.2549H144.135V0.304354ZM87.9875 1.54422L72.9721 25.3472H77.9366L82.466 18.1569H92.1459L94.6902 14.0667H85.0103L90.2848 5.82232L102.633 25.3483H107.596L92.456 1.48121C91.5248 -0.068346 89.0426 -0.0683481 87.9875 1.54422ZM117.088 4.3881H134.307L136.846 0.300085L116.962 0.311834C110.044 0.311834 105.492 5.91416 105.492 12.8247C105.492 19.7374 110.046 25.3397 116.962 25.3397L133.782 25.3194L136.415 21.2624H117.087C112.423 21.2624 109.696 17.4851 109.696 12.8247C109.697 8.16535 112.424 4.3881 117.088 4.3881ZM29.2183 0.311834H11.4716C4.55401 0.311834 0 5.91417 0 12.8258C0 19.7374 4.55401 25.3397 11.4716 25.3397H29.2183C36.1359 25.3397 40.6899 19.7374 40.6899 12.8258C40.6899 5.91417 36.1359 0.311834 29.2183 0.311834ZM29.2183 21.2624H11.4716C6.80749 21.2624 4.08043 17.4851 4.08043 12.8258C4.08043 8.16642 6.80749 4.3881 11.4716 4.3881H29.2183C33.8825 4.3881 36.6095 8.16642 36.6095 12.8258C36.6095 17.4851 33.8825 21.2624 29.2183 21.2624ZM173.588 4.3881H190.806L193.348 0.300085L173.464 0.311834C166.544 0.311834 161.991 5.91416 161.991 12.8247C161.991 19.7374 166.545 25.3397 173.464 25.3397L190.282 25.3194L192.915 21.2624H173.587C169.605 21.2624 167.056 18.5125 166.39 14.8089H188.075L190.681 10.7177H166.39C167.1 7.09208 169.662 4.3881 173.588 4.3881ZM64.0276 15.172C66.0001 15.172 67.8917 14.3893 69.2865 12.9959C70.6812 11.6026 71.4648 9.71289 71.4648 7.74245C71.4648 5.77201 70.6812 3.88228 69.2865 2.48897C67.8917 1.09566 66.0001 0.312901 64.0276 0.312901L43.1476 0.304354V25.3461H47.739V4.38917H64.0276C64.9179 4.38917 65.7717 4.74246 66.4012 5.37133C67.0307 6.00019 67.3843 6.85311 67.3843 7.74245C67.3843 8.6318 67.0307 9.48472 66.4012 10.1136C65.7717 10.7424 64.9179 11.0957 64.0276 11.0957H50.9664L65.7006 25.3184H71.6283L61.0803 15.1816L64.0276 15.172ZM197.739 0C196.508 0 195.467 0.946179 195.467 2.22876C195.467 3.52308 196.508 4.47033 197.739 4.47033C198.959 4.47033 200 3.52415 200 2.22876C200 0.945111 198.958 0 197.739 0ZM197.739 4.09656C196.716 4.09656 195.916 3.30416 195.916 2.22769C195.916 1.16938 196.716 0.371637 197.739 0.371637C198.751 0.371637 199.549 1.17044 199.549 2.22769C199.549 3.30416 198.751 4.09656 197.739 4.09656Z"
		fill="#CF402D"
	/>
	<path
		fill-rule="evenodd"
		clip-rule="evenodd"
		d="M198.101 2.38719C198.48 2.3402 198.77 2.13836 198.77 1.67702C198.77 1.16869 198.469 0.943359 197.859 0.943359H196.875V3.52132H197.265V2.40428H197.717L198.398 3.52132H198.834L198.101 2.38719ZM197.265 2.07322V1.27441H197.8C198.071 1.27441 198.361 1.33315 198.361 1.65245C198.361 2.04865 198.065 2.07215 197.733 2.07215L197.265 2.07322Z"
		fill="#CF402D"
	/>
</svg>
