<svg
	viewBox="0 0 1351 218"
	fill="none"
	xmlns="http://www.w3.org/2000/svg"
>
	<path
		d="M45.9371 98.5H146.737V137.5H45.9371V98.5ZM49.5371 214H0.937111V3.99999H159.637V43H49.5371V214ZM261.539 217.6C244.739 217.6 228.639 215.4 213.239 211C197.839 206.4 185.439 200.5 176.039 193.3L192.539 156.7C201.539 163.1 212.139 168.4 224.339 172.6C236.739 176.6 249.239 178.6 261.839 178.6C271.439 178.6 279.139 177.7 284.939 175.9C290.939 173.9 295.339 171.2 298.139 167.8C300.939 164.4 302.339 160.5 302.339 156.1C302.339 150.5 300.139 146.1 295.739 142.9C291.339 139.5 285.539 136.8 278.339 134.8C271.139 132.6 263.139 130.6 254.339 128.8C245.739 126.8 237.039 124.4 228.239 121.6C219.639 118.8 211.739 115.2 204.539 110.8C197.339 106.4 191.439 100.6 186.839 93.4C182.439 86.2 180.239 77 180.239 65.8C180.239 53.8 183.439 42.9 189.839 33.1C196.439 23.1 206.239 15.2 219.239 9.39999C232.439 3.39999 248.939 0.399996 268.739 0.399996C281.939 0.399996 294.939 1.99999 307.739 5.19999C320.539 8.19999 331.839 12.8 341.639 19L326.639 55.9C316.839 50.3 307.039 46.2 297.239 43.6C287.439 40.8 277.839 39.4 268.439 39.4C259.039 39.4 251.339 40.5 245.339 42.7C239.339 44.9 235.039 47.8 232.439 51.4C229.839 54.8 228.539 58.8 228.539 63.4C228.539 68.8 230.739 73.2 235.139 76.6C239.539 79.8 245.339 82.4 252.539 84.4C259.739 86.4 267.639 88.4 276.239 90.4C285.039 92.4 293.739 94.7 302.339 97.3C311.139 99.9 319.139 103.4 326.339 107.8C333.539 112.2 339.339 118 343.739 125.2C348.339 132.4 350.639 141.5 350.639 152.5C350.639 164.3 347.339 175.1 340.739 184.9C334.139 194.7 324.239 202.6 311.039 208.6C298.039 214.6 281.539 217.6 261.539 217.6ZM424.418 214V43.6H357.218V3.99999H540.218V43.6H473.018V214H424.418ZM612.665 214L543.965 3.99999H594.365L654.065 190H628.865L691.265 3.99999H736.265L796.265 190H771.965L833.165 3.99999H879.665L810.965 214H758.765L705.665 50.8H719.465L664.865 214H612.665ZM1006.45 217.6C989.853 217.6 974.453 214.9 960.253 209.5C946.253 204.1 934.053 196.5 923.653 186.7C913.453 176.9 905.453 165.4 899.653 152.2C894.053 139 891.253 124.6 891.253 109C891.253 93.4 894.053 79 899.653 65.8C905.453 52.6 913.553 41.1 923.953 31.3C934.353 21.5 946.553 13.9 960.553 8.49998C974.553 3.09999 989.753 0.399996 1006.15 0.399996C1022.75 0.399996 1037.95 3.09999 1051.75 8.49998C1065.75 13.9 1077.85 21.5 1088.05 31.3C1098.45 41.1 1106.55 52.6 1112.35 65.8C1118.15 78.8 1121.05 93.2 1121.05 109C1121.05 124.6 1118.15 139.1 1112.35 152.5C1106.55 165.7 1098.45 177.2 1088.05 187C1077.85 196.6 1065.75 204.1 1051.75 209.5C1037.95 214.9 1022.85 217.6 1006.45 217.6ZM1006.15 176.2C1015.55 176.2 1024.15 174.6 1031.95 171.4C1039.95 168.2 1046.95 163.6 1052.95 157.6C1058.95 151.6 1063.55 144.5 1066.75 136.3C1070.15 128.1 1071.85 119 1071.85 109C1071.85 99 1070.15 89.9 1066.75 81.7C1063.55 73.5 1058.95 66.4 1052.95 60.4C1047.15 54.4 1040.25 49.8 1032.25 46.6C1024.25 43.4 1015.55 41.8 1006.15 41.8C996.753 41.8 988.053 43.4 980.053 46.6C972.253 49.8 965.353 54.4 959.353 60.4C953.353 66.4 948.653 73.5 945.253 81.7C942.053 89.9 940.453 99 940.453 109C940.453 118.8 942.053 127.9 945.253 136.3C948.653 144.5 953.253 151.6 959.053 157.6C965.053 163.6 972.053 168.2 980.053 171.4C988.053 174.6 996.753 176.2 1006.15 176.2ZM1157.58 214V3.99999H1197.78L1321.68 155.2H1302.18V3.99999H1350.18V214H1310.28L1186.08 62.8H1205.58V214H1157.58Z"
		fill="currentColor"
	/>
</svg>
