<svg width="48" height="48" viewBox="0 0 48 48" fill="none" xmlns="http://www.w3.org/2000/svg">
<path d="M47.9991 0.998744V46.8438C48.0015 46.9945 47.9729 47.1441 47.9151 47.2833C47.8573 47.4225 47.7715 47.5484 47.663 47.6531C47.5567 47.7633 47.4292 47.8509 47.2881 47.9105C47.147 47.9701 46.9953 48.0005 46.8421 48H1.15149C0.846487 47.9957 0.555265 47.8723 0.340086 47.6563C0.124907 47.4402 0.00284736 47.1486 0 46.8438V0.998744C0.000840248 0.813554 0.0553784 0.63258 0.157013 0.477722C0.258649 0.322863 0.403024 0.20076 0.572663 0.126196C0.742302 0.0516315 0.929932 0.0277994 1.11284 0.057586C1.29576 0.0873726 1.46611 0.169501 1.60328 0.294028L23.9775 23.3074L46.3297 0.316051C46.4619 0.169735 46.636 0.0677247 46.8284 0.0239363C47.0207 -0.0198521 47.2219 -0.00328646 47.4044 0.0713718C47.587 0.14603 47.7421 0.275146 47.8485 0.441111C47.9549 0.607075 48.0075 0.801806 47.9991 0.998744Z" fill="#A9DEFF"/>
<path d="M47.663 47.6586C47.5567 47.7669 47.4298 47.8529 47.2898 47.9115C47.1498 47.9701 46.9994 48.0002 46.8476 48H1.15149C0.846546 47.9985 0.554499 47.8768 0.338865 47.6614C0.123231 47.4459 0.00144871 47.1541 0 46.8493V0.998738C0.00316772 0.814583 0.0590915 0.635196 0.161145 0.481824C0.263199 0.328452 0.407106 0.207526 0.57582 0.133369C0.744534 0.0592108 0.930985 0.0349284 1.11308 0.0634019C1.29518 0.0918754 1.4653 0.171909 1.60328 0.294023L23.9775 23.3074L47.663 47.6586Z" fill="#3F8EFF"/>
<path d="M47.663 47.6586C47.5567 47.7669 47.4298 47.8529 47.2898 47.9115C47.1498 47.9701 46.9995 48.0002 46.8476 48H1.1515C0.999784 47.9996 0.849643 47.9692 0.709707 47.9106C0.569771 47.8521 0.442801 47.7664 0.33609 47.6586L24.0271 23.3184L47.663 47.6586Z" fill="#6DBBFF"/>
</svg>
