<svg
	viewBox="0 0 118 119"
	fill="none"
	xmlns="http://www.w3.org/2000/svg"
>
	<path
		d="M117.947 58.7482C118.15 46.1911 115.318 31.2587 109.418 13.7389L104.793 0L98.5094 13.064C98.1731 13.7624 97.7896 14.4461 97.3884 15.121C87.0663 6.26825 73.6733 0.884097 59 0.884097C26.4143 0.884097 0 27.2714 0 59.8239C0 92.3763 26.4143 118.764 59 118.764C91.5857 118.764 118 92.3763 118 59.8239C118 59.4614 117.953 59.1107 117.947 58.7482Z"
		fill="#8BC34A"
	/>
	<path
		d="M104.385 85.0453C95.1723 97.7232 78.8647 98.404 63.5158 98.1358H43.5119H37.7948C50.8574 93.4413 58.6306 92.3243 66.5691 88.1161C81.5197 80.2623 96.2992 63.0784 99.376 45.202C93.6825 62.4006 76.428 77.1768 60.7045 83.1857C49.9311 87.2909 30.4729 91.2752 30.4729 91.2752L29.6852 90.8479C16.4397 84.1907 16.0385 54.5616 40.1194 44.9957C50.6627 40.8021 60.7487 43.1067 72.1387 40.3012C84.2986 37.3188 98.3642 27.9002 104.087 15.6201C110.495 35.2677 118.206 66.0313 104.385 85.0453ZM34.42 102.394C33.5881 103.426 32.3166 104.03 30.9891 104.03C28.5613 104.03 26.5789 102.035 26.5789 99.6093C26.5789 97.1839 28.576 95.1888 30.9891 95.1888C31.9951 95.1888 32.9863 95.5366 33.7651 96.179C35.6531 97.7085 35.9481 100.508 34.42 102.394Z"
		fill="white"
	/>
</svg>
